<?xml version="1.0" encoding="utf-8"?>
<COLLADA xmlns="http://www.collada.org/2005/11/COLLADASchema" version="1.4.1">
  <asset>
    <contributor><authoring_tool>arctic-sim gen_ship</authoring_tool></contributor>
    <unit meter="1" name="meter"/>
    <up_axis>Z_UP</up_axis>
  </asset>
  <library_effects>
    <effect id="hull-fx">
      <profile_COMMON><technique sid="common"><lambert>
        <diffuse><color>0.72 0.12 0.1 1</color></diffuse>
        <ambient><color>0.252 0.041999999999999996 0.034999999999999996 1</color></ambient>
      </lambert></technique></profile_COMMON>
    </effect>
  </library_effects>
  <library_materials>
    <material id="hull-mat" name="hull"><instance_effect url="#hull-fx"/></material>
  </library_materials>
  <library_geometries>
    <geometry id="hull-geo" name="hull">
      <mesh>
        <source id="hull-pos">
          <float_array id="hull-pos-arr" count="1740">21.0000 -0.0000 -1.4300 21.0000 -0.0000 -0.9725 21.0000 -0.0000 -0.4147 21.0000 -0.0000 0.1885 21.0000 -0.0000 0.8231 21.0000 -0.0000 1.4823 21.0000 -0.0000 2.1616 21.0000 -0.0000 2.8582 21.0000 -0.0000 3.5700 21.0000 0.0000 3.5700 21.0000 0.0000 2.8582 21.0000 0.0000 2.1616 21.0000 0.0000 1.4823 21.0000 0.0000 0.8231 21.0000 0.0000 0.1885 21.0000 0.0000 -0.4147 21.0000 0.0000 -0.9725 21.0000 0.0000 -1.4300 19.5000 -0.0000 -1.5610 19.5000 -0.3161 -1.1035 19.5000 -0.5239 -0.5457 19.5000 -0.6929 0.0575 19.5000 -0.8303 0.6921 19.5000 -0.9376 1.3513 19.5000 -1.0147 2.0306 19.5000 -1.0612 2.7272 19.5000 -1.0768 3.4390 19.5000 1.0768 3.4390 19.5000 1.0612 2.7272 19.5000 1.0147 2.0306 19.5000 0.9376 1.3513 19.5000 0.8303 0.6921 19.5000 0.6929 0.0575 19.5000 0.5239 -0.5457 19.5000 0.3161 -1.1035 19.5000 0.0000 -1.5610 18.0000 -0.0000 -1.6903 18.0000 -0.5613 -1.2328 18.0000 -0.9303 -0.6750 18.0000 -1.2304 -0.0719 18.0000 -1.4744 0.5628 18.0000 -1.6649 1.2219 18.0000 -1.8018 1.9013 18.0000 -1.8845 2.5979 18.0000 -1.9121 3.3097 18.0000 1.9121 3.3097 18.0000 1.8845 2.5979 18.0000 1.8018 1.9013 18.0000 1.6649 1.2219 18.0000 1.4744 0.5628 18.0000 1.2304 -0.0719 18.0000 0.9303 -0.6750 18.0000 0.5613 -1.2328 18.0000 0.0000 -1.6903 16.5000 -0.0000 -1.8164 16.5000 -0.7726 -1.3589 16.5000 -1.2805 -0.8011 16.5000 -1.6936 -0.1980 16.5000 -2.0294 0.4367 16.5000 -2.2916 1.0958 16.5000 -2.4801 1.7752 16.5000 -2.5938 2.4718 16.5000 -2.6318 3.1836 16.5000 2.6318 3.1836 16.5000 2.5938 2.4718 16.5000 2.4801 1.7752 16.5000 2.2916 1.0958 16.5000 2.0294 0.4367 16.5000 1.6936 -0.1980 16.5000 1.2805 -0.8011 16.5000 0.7726 -1.3589 16.5000 0.0000 -1.8164 15.0000 -0.0000 -1.9376 15.0000 -0.9520 -1.4801 15.0000 -1.5779 -0.9223 15.0000 -2.0869 -0.3192 15.0000 -2.5006 0.3155 15.0000 -2.8237 0.9746 15.0000 -3.0560 1.6540 15.0000 -3.1961 2.3506 15.0000 -3.2429 3.0624 15.0000 3.2429 3.0624 15.0000 3.1961 2.3506 15.0000 3.0560 1.6540 15.0000 2.8237 0.9746 15.0000 2.5006 0.3155 15.0000 2.0869 -0.3192 15.0000 1.5779 -0.9223 15.0000 0.9520 -1.4801 15.0000 0.0000 -1.9376 13.5000 -0.0000 -2.0525 13.5000 -1.0981 -1.5950 13.5000 -1.8201 -1.0372 13.5000 -2.4072 -0.4340 13.5000 -2.8845 0.2006 13.5000 -3.2572 0.8598 13.5000 -3.5251 1.5391 13.5000 -3.6867 2.2358 13.5000 -3.7407 2.9475 13.5000 3.7407 2.9475 13.5000 3.6867 2.2358 13.5000 3.5251 1.5391 13.5000 3.2572 0.8598 13.5000 2.8845 0.2006 13.5000 2.4072 -0.4340 13.5000 1.8201 -1.0372 13.5000 1.0981 -1.5950 13.5000 0.0000 -2.0525 12.0000 -0.0000 -2.1595 12.0000 -1.2089 -1.7020 12.0000 -2.0038 -1.1442 12.0000 -2.6501 -0.5410 12.0000 -3.1756 0.0936 12.0000 -3.5859 0.7528 12.0000 -3.8809 1.4321 12.0000 -4.0588 2.1288 12.0000 -4.1183 2.8405 12.0000 4.1183 2.8405 12.0000 4.0588 2.1288 12.0000 3.8809 1.4321 12.0000 3.5859 0.7528 12.0000 3.1756 0.0936 12.0000 2.6501 -0.5410 12.0000 2.0038 -1.1442 12.0000 1.2089 -1.7020 12.0000 0.0000 -2.1595 10.5000 -0.0000 -2.2573 10.5000 -1.2826 -1.7998 10.5000 -2.1259 -1.2420 10.5000 -2.8117 -0.6388 10.5000 -3.3692 -0.0042 10.5000 -3.8045 0.6550 10.5000 -4.1174 1.3343 10.5000 -4.3062 2.0309 10.5000 -4.3693 2.7427 10.5000 4.3693 2.7427 10.5000 4.3062 2.0309 10.5000 4.1174 1.3343 10.5000 3.8045 0.6550 10.5000 3.3692 -0.0042 10.5000 2.8117 -0.6388 10.5000 2.1259 -1.2420 10.5000 1.2826 -1.7998 10.5000 0.0000 -2.2573 9.0000 -0.0000 -2.3447 9.0000 -1.3178 -1.8872 9.0000 -2.1843 -1.3294 9.0000 -2.8889 -0.7263 9.0000 -3.4617 -0.0916 9.0000 -3.9090 0.5675 9.0000 -4.2305 1.2469 9.0000 -4.4245 1.9435 9.0000 -4.4893 2.6553 9.0000 4.4893 2.6553 9.0000 4.4245 1.9435 9.0000 4.2305 1.2469 9.0000 3.9090 0.5675 9.0000 3.4617 -0.0916 9.0000 2.8889 -0.7263 9.0000 2.1843 -1.3294 9.0000 1.3178 -1.8872 9.0000 0.0000 -2.3447 7.5000 -0.0000 -2.4207 7.5000 -1.3210 -1.9631 7.5000 -2.1895 -1.4054 7.5000 -2.8958 -0.8022 7.5000 -3.4700 -0.1675 7.5000 -3.9183 0.4916 7.5000 -4.2406 1.1710 7.5000 -4.4350 1.8676 7.5000 -4.5000 2.5793 7.5000 4.5000 2.5793 7.5000 4.4350 1.8676 7.5000 4.2406 1.1710 7.5000 3.9183 0.4916 7.5000 3.4700 -0.1675 7.5000 2.8958 -0.8022 7.5000 2.1895 -1.4054 7.5000 1.3210 -1.9631 7.5000 0.0000 -2.4207 6.0000 -0.0000 -2.4841 6.0000 -1.3210 -2.0266 6.0000 -2.1895 -1.4688 6.0000 -2.8958 -0.8657 6.0000 -3.4700 -0.2310 6.0000 -3.9183 0.4281 6.0000 -4.2406 1.1075 6.0000 -4.4350 1.8041 6.0000 -4.5000 2.5159 6.0000 4.5000 2.5159 6.0000 4.4350 1.8041 6.0000 4.2406 1.1075 6.0000 3.9183 0.4281 6.0000 3.4700 -0.2310 6.0000 2.8958 -0.8657 6.0000 2.1895 -1.4688 6.0000 1.3210 -2.0266 6.0000 0.0000 -2.4841 4.5000 -0.0000 -2.5343 4.5000 -1.3210 -2.0768 4.5000 -2.1895 -1.5190 4.5000 -2.8958 -0.9159 4.5000 -3.4700 -0.2812 4.5000 -3.9183 0.3779 4.5000 -4.2406 1.0573 4.5000 -4.4350 1.7539 4.5000 -4.5000 2.4657 4.5000 4.5000 2.4657 4.5000 4.4350 1.7539 4.5000 4.2406 1.0573 4.5000 3.9183 0.3779 4.5000 3.4700 -0.2812 4.5000 2.8958 -0.9159 4.5000 2.1895 -1.5190 4.5000 1.3210 -2.0768 4.5000 0.0000 -2.5343 3.0000 -0.0000 -2.5707 3.0000 -1.3210 -2.1131 3.0000 -2.1895 -1.5554 3.0000 -2.8958 -0.9522 3.0000 -3.4700 -0.3175 3.0000 -3.9183 0.3416 3.0000 -4.2406 1.0210 3.0000 -4.4350 1.7176 3.0000 -4.5000 2.4293 3.0000 4.5000 2.4293 3.0000 4.4350 1.7176 3.0000 4.2406 1.0210 3.0000 3.9183 0.3416 3.0000 3.4700 -0.3175 3.0000 2.8958 -0.9522 3.0000 2.1895 -1.5554 3.0000 1.3210 -2.1131 3.0000 0.0000 -2.5707 1.5000 -0.0000 -2.5926 1.5000 -1.3210 -2.1351 1.5000 -2.1895 -1.5773 1.5000 -2.8958 -0.9742 1.5000 -3.4700 -0.3395 1.5000 -3.9183 0.3196 1.5000 -4.2406 0.9990 1.5000 -4.4350 1.6956 1.5000 -4.5000 2.4074 1.5000 4.5000 2.4074 1.5000 4.4350 1.6956 1.5000 4.2406 0.9990 1.5000 3.9183 0.3196 1.5000 3.4700 -0.3395 1.5000 2.8958 -0.9742 1.5000 2.1895 -1.5773 1.5000 1.3210 -2.1351 1.5000 0.0000 -2.5926 0.0000 -0.0000 -2.6000 0.0000 -1.3210 -2.1425 0.0000 -2.1895 -1.5847 0.0000 -2.8958 -0.9815 0.0000 -3.4700 -0.3469 0.0000 -3.9183 0.3123 0.0000 -4.2406 0.9916 0.0000 -4.4350 1.6882 0.0000 -4.5000 2.4000 0.0000 4.5000 2.4000 0.0000 4.4350 1.6882 0.0000 4.2406 0.9916 0.0000 3.9183 0.3123 0.0000 3.4700 -0.3469 0.0000 2.8958 -0.9815 0.0000 2.1895 -1.5847 0.0000 1.3210 -2.1425 0.0000 0.0000 -2.6000 -1.5000 -0.0000 -2.5926 -1.5000 -1.3210 -2.1351 -1.5000 -2.1895 -1.5773 -1.5000 -2.8958 -0.9742 -1.5000 -3.4700 -0.3395 -1.5000 -3.9183 0.3196 -1.5000 -4.2406 0.9990 -1.5000 -4.4350 1.6956 -1.5000 -4.5000 2.4074 -1.5000 4.5000 2.4074 -1.5000 4.4350 1.6956 -1.5000 4.2406 0.9990 -1.5000 3.9183 0.3196 -1.5000 3.4700 -0.3395 -1.5000 2.8958 -0.9742 -1.5000 2.1895 -1.5773 -1.5000 1.3210 -2.1351 -1.5000 0.0000 -2.5926 -3.0000 -0.0000 -2.5707 -3.0000 -1.3210 -2.1131 -3.0000 -2.1895 -1.5554 -3.0000 -2.8958 -0.9522 -3.0000 -3.4700 -0.3175 -3.0000 -3.9183 0.3416 -3.0000 -4.2406 1.0210 -3.0000 -4.4350 1.7176 -3.0000 -4.5000 2.4293 -3.0000 4.5000 2.4293 -3.0000 4.4350 1.7176 -3.0000 4.2406 1.0210 -3.0000 3.9183 0.3416 -3.0000 3.4700 -0.3175 -3.0000 2.8958 -0.9522 -3.0000 2.1895 -1.5554 -3.0000 1.3210 -2.1131 -3.0000 0.0000 -2.5707 -4.5000 -0.0000 -2.5343 -4.5000 -1.3210 -2.0768 -4.5000 -2.1895 -1.5190 -4.5000 -2.8958 -0.9159 -4.5000 -3.4700 -0.2812 -4.5000 -3.9183 0.3779 -4.5000 -4.2406 1.0573 -4.5000 -4.4350 1.7539 -4.5000 -4.5000 2.4657 -4.5000 4.5000 2.4657 -4.5000 4.4350 1.7539 -4.5000 4.2406 1.0573 -4.5000 3.9183 0.3779 -4.5000 3.4700 -0.2812 -4.5000 2.8958 -0.9159 -4.5000 2.1895 -1.5190 -4.5000 1.3210 -2.0768 -4.5000 0.0000 -2.5343 -6.0000 -0.0000 -2.4841 -6.0000 -1.3210 -2.0266 -6.0000 -2.1895 -1.4688 -6.0000 -2.8958 -0.8657 -6.0000 -3.4700 -0.2310 -6.0000 -3.9183 0.4281 -6.0000 -4.2406 1.1075 -6.0000 -4.4350 1.8041 -6.0000 -4.5000 2.5159 -6.0000 4.5000 2.5159 -6.0000 4.4350 1.8041 -6.0000 4.2406 1.1075 -6.0000 3.9183 0.4281 -6.0000 3.4700 -0.2310 -6.0000 2.8958 -0.8657 -6.0000 2.1895 -1.4688 -6.0000 1.3210 -2.0266 -6.0000 0.0000 -2.4841 -7.5000 -0.0000 -2.4207 -7.5000 -1.3210 -1.9631 -7.5000 -2.1895 -1.4054 -7.5000 -2.8958 -0.8022 -7.5000 -3.4700 -0.1675 -7.5000 -3.9183 0.4916 -7.5000 -4.2406 1.1710 -7.5000 -4.4350 1.8676 -7.5000 -4.5000 2.5793 -7.5000 4.5000 2.5793 -7.5000 4.4350 1.8676 -7.5000 4.2406 1.1710 -7.5000 3.9183 0.4916 -7.5000 3.4700 -0.1675 -7.5000 2.8958 -0.8022 -7.5000 2.1895 -1.4054 -7.5000 1.3210 -1.9631 -7.5000 0.0000 -2.4207 -9.0000 -0.0000 -2.3447 -9.0000 -1.3210 -1.8872 -9.0000 -2.1895 -1.3294 -9.0000 -2.8958 -0.7263 -9.0000 -3.4700 -0.0916 -9.0000 -3.9183 0.5675 -9.0000 -4.2406 1.2469 -9.0000 -4.4350 1.9435 -9.0000 -4.5000 2.6553 -9.0000 4.5000 2.6553 -9.0000 4.4350 1.9435 -9.0000 4.2406 1.2469 -9.0000 3.9183 0.5675 -9.0000 3.4700 -0.0916 -9.0000 2.8958 -0.7263 -9.0000 2.1895 -1.3294 -9.0000 1.3210 -1.8872 -9.0000 0.0000 -2.3447 -10.5000 -0.0000 -2.2573 -10.5000 -1.3210 -1.7998 -10.5000 -2.1895 -1.2420 -10.5000 -2.8958 -0.6388 -10.5000 -3.4700 -0.0042 -10.5000 -3.9183 0.6550 -10.5000 -4.2406 1.3343 -10.5000 -4.4350 2.0309 -10.5000 -4.5000 2.7427 -10.5000 4.5000 2.7427 -10.5000 4.4350 2.0309 -10.5000 4.2406 1.3343 -10.5000 3.9183 0.6550 -10.5000 3.4700 -0.0042 -10.5000 2.8958 -0.6388 -10.5000 2.1895 -1.2420 -10.5000 1.3210 -1.7998 -10.5000 0.0000 -2.2573 -12.0000 -0.0000 -2.1595 -12.0000 -1.3210 -1.7020 -12.0000 -2.1895 -1.1442 -12.0000 -2.8958 -0.5410 -12.0000 -3.4700 0.0936 -12.0000 -3.9183 0.7528 -12.0000 -4.2406 1.4321 -12.0000 -4.4350 2.1288 -12.0000 -4.5000 2.8405 -12.0000 4.5000 2.8405 -12.0000 4.4350 2.1288 -12.0000 4.2406 1.4321 -12.0000 3.9183 0.7528 -12.0000 3.4700 0.0936 -12.0000 2.8958 -0.5410 -12.0000 2.1895 -1.1442 -12.0000 1.3210 -1.7020 -12.0000 0.0000 -2.1595 -13.5000 -0.0000 -2.0525 -13.5000 -1.3210 -1.5950 -13.5000 -2.1895 -1.0372 -13.5000 -2.8958 -0.4340 -13.5000 -3.4700 0.2006 -13.5000 -3.9183 0.8598 -13.5000 -4.2406 1.5391 -13.5000 -4.4350 2.2358 -13.5000 -4.5000 2.9475 -13.5000 4.5000 2.9475 -13.5000 4.4350 2.2358 -13.5000 4.2406 1.5391 -13.5000 3.9183 0.8598 -13.5000 3.4700 0.2006 -13.5000 2.8958 -0.4340 -13.5000 2.1895 -1.0372 -13.5000 1.3210 -1.5950 -13.5000 0.0000 -2.0525 -15.0000 -0.0000 -1.9376 -15.0000 -1.3210 -1.4801 -15.0000 -2.1895 -0.9223 -15.0000 -2.8958 -0.3192 -15.0000 -3.4700 0.3155 -15.0000 -3.9183 0.9746 -15.0000 -4.2406 1.6540 -15.0000 -4.4350 2.3506 -15.0000 -4.5000 3.0624 -15.0000 4.5000 3.0624 -15.0000 4.4350 2.3506 -15.0000 4.2406 1.6540 -15.0000 3.9183 0.9746 -15.0000 3.4700 0.3155 -15.0000 2.8958 -0.3192 -15.0000 2.1895 -0.9223 -15.0000 1.3210 -1.4801 -15.0000 0.0000 -1.9376 -16.5000 -0.0000 -1.8164 -16.5000 -1.2714 -1.3589 -16.5000 -2.1074 -0.8011 -16.5000 -2.7872 -0.1980 -16.5000 -3.3399 0.4367 -16.5000 -3.7714 1.0958 -16.5000 -4.0815 1.7752 -16.5000 -4.2687 2.4718 -16.5000 -4.3312 3.1836 -16.5000 4.3312 3.1836 -16.5000 4.2687 2.4718 -16.5000 4.0815 1.7752 -16.5000 3.7714 1.0958 -16.5000 3.3399 0.4367 -16.5000 2.7872 -0.1980 -16.5000 2.1074 -0.8011 -16.5000 1.2714 -1.3589 -16.5000 0.0000 -1.8164 -18.0000 -0.0000 -1.6903 -18.0000 -1.1338 -1.2328 -18.0000 -1.8793 -0.6750 -18.0000 -2.4856 -0.0719 -18.0000 -2.9784 0.5628 -18.0000 -3.3632 1.2219 -18.0000 -3.6398 1.9013 -18.0000 -3.8067 2.5979 -18.0000 -3.8625 3.3097 -18.0000 3.8625 3.3097 -18.0000 3.8067 2.5979 -18.0000 3.6398 1.9013 -18.0000 3.3632 1.2219 -18.0000 2.9784 0.5628 -18.0000 2.4856 -0.0719 -18.0000 1.8793 -0.6750 -18.0000 1.1338 -1.2328 -18.0000 0.0000 -1.6903 -19.5000 -0.0000 -1.5610 -19.5000 -0.9962 -1.1035 -19.5000 -1.6512 -0.5457 -19.5000 -2.1839 0.0575 -19.5000 -2.6169 0.6921 -19.5000 -2.9550 1.3513 -19.5000 -3.1981 2.0306 -19.5000 -3.3447 2.7272 -19.5000 -3.3937 3.4390 -19.5000 3.3937 3.4390 -19.5000 3.3447 2.7272 -19.5000 3.1981 2.0306 -19.5000 2.9550 1.3513 -19.5000 2.6169 0.6921 -19.5000 2.1839 0.0575 -19.5000 1.6512 -0.5457 -19.5000 0.9962 -1.1035 -19.5000 0.0000 -1.5610 -21.0000 -0.0000 -1.4300 -21.0000 -0.8586 -0.9725 -21.0000 -1.4232 -0.4147 -21.0000 -1.8823 0.1885 -21.0000 -2.2555 0.8231 -21.0000 -2.5469 1.4823 -21.0000 -2.7564 2.1616 -21.0000 -2.8827 2.8582 -21.0000 -2.9250 3.5700 -21.0000 2.9250 3.5700 -21.0000 2.8827 2.8582 -21.0000 2.7564 2.1616 -21.0000 2.5469 1.4823 -21.0000 2.2555 0.8231 -21.0000 1.8823 0.1885 -21.0000 1.4232 -0.4147 -21.0000 0.8586 -0.9725 -21.0000 0.0000 -1.4300 21.0000 -0.0000 2.4000 21.0000 0.0000 2.4000 19.5000 -1.0768 2.4000 19.5000 1.0768 2.4000 18.0000 -1.9121 2.4000 18.0000 1.9121 2.4000 16.5000 -2.6318 2.4000 16.5000 2.6318 2.4000 15.0000 -3.2429 2.4000 15.0000 3.2429 2.4000 13.5000 -3.7407 2.4000 13.5000 3.7407 2.4000 12.0000 -4.1183 2.4000 12.0000 4.1183 2.4000 10.5000 -4.3693 2.4000 10.5000 4.3693 2.4000 9.0000 -4.4893 2.4000 9.0000 4.4893 2.4000 7.5000 -4.5000 2.4000 7.5000 4.5000 2.4000 6.0000 -4.5000 2.4000 6.0000 4.5000 2.4000 4.5000 -4.5000 2.4000 4.5000 4.5000 2.4000 3.0000 -4.5000 2.4000 3.0000 4.5000 2.4000 1.5000 -4.5000 2.4000 1.5000 4.5000 2.4000 0.0000 -4.5000 2.4000 0.0000 4.5000 2.4000 -1.5000 -4.5000 2.4000 -1.5000 4.5000 2.4000 -3.0000 -4.5000 2.4000 -3.0000 4.5000 2.4000 -4.5000 -4.5000 2.4000 -4.5000 4.5000 2.4000 -6.0000 -4.5000 2.4000 -6.0000 4.5000 2.4000 -7.5000 -4.5000 2.4000 -7.5000 4.5000 2.4000 -9.0000 -4.5000 2.4000 -9.0000 4.5000 2.4000 -10.5000 -4.5000 2.4000 -10.5000 4.5000 2.4000 -12.0000 -4.5000 2.4000 -12.0000 4.5000 2.4000 -13.5000 -4.5000 2.4000 -13.5000 4.5000 2.4000 -15.0000 -4.5000 2.4000 -15.0000 4.5000 2.4000 -16.5000 -4.3312 2.4000 -16.5000 4.3312 2.4000 -18.0000 -3.8625 2.4000 -18.0000 3.8625 2.4000 -19.5000 -3.3937 2.4000 -19.5000 3.3937 2.4000 -21.0000 -2.9250 2.4000 -21.0000 2.9250 2.4000</float_array>
          <technique_common>
            <accessor source="#hull-pos-arr" count="580" stride="3">
              <param name="X" type="float"/>
              <param name="Y" type="float"/>
              <param name="Z" type="float"/>
            </accessor>
          </technique_common>
        </source>
        <source id="hull-nrm">
          <float_array id="hull-nrm-arr" count="3192">-0.0496 0.8217 0.5677 -0.2062 0.9785 0.0000 -0.2223 0.9136 0.3404 -0.3297 0.9441 0.0000 -0.3386 0.9060 0.2539 -0.4194 0.9078 0.0000 -0.4253 0.8845 0.1915 -0.4843 0.8749 0.0000 -0.4889 0.8610 0.1401 -0.5300 0.8480 0.0000 -0.5336 0.8403 0.0954 -0.5603 0.8283 0.0000 -0.5627 0.8248 0.0551 -0.5776 0.8164 0.0000 -0.5785 0.8155 0.0178 -0.5832 0.8124 0.0000 0.0870 0.0000 -0.9962 0.0000 0.0000 -0.0000 -0.5841 -0.8115 0.0177 -0.5776 -0.8164 -0.0000 -0.5799 -0.8129 0.0543 -0.5603 -0.8283 -0.0000 -0.5634 -0.8209 0.0932 -0.5300 -0.8480 -0.0000 -0.5336 -0.8347 0.1359 -0.4843 -0.8749 -0.0000 -0.4883 -0.8529 0.1846 -0.4194 -0.9078 -0.0000 -0.4242 -0.8720 0.2443 -0.3297 -0.9441 -0.0000 -0.3369 -0.8823 0.3287 -0.2062 -0.9785 -0.0000 -0.2177 -0.8030 0.5548 0.0000 -1.0000 -0.0000 -0.0000 0.0000 0.0000 -0.0000 0.0000 0.0000 -0.0667 0.6304 0.7734 -0.1805 0.8092 0.5591 -0.1809 0.8202 0.5427 -0.2732 0.9014 0.3359 -0.2705 0.8619 0.4289 -0.3456 0.9036 0.2532 -0.3432 0.8767 0.3370 -0.4012 0.8953 0.1938 -0.4000 0.8805 0.2545 -0.4418 0.8855 0.1441 -0.4417 0.8795 0.1773 -0.4691 0.8775 0.0996 -0.4692 0.8770 0.1040 -0.4842 0.8730 0.0583 -0.4831 0.8749 0.0340 -0.4877 0.8728 0.0191 0.0859 0.0000 -0.9963 0.0859 0.0000 -0.9963 -0.4885 -0.8719 0.0338 -0.4823 -0.8758 0.0191 -0.4854 -0.8682 0.1030 -0.4678 -0.8818 0.0589 -0.4693 -0.8656 0.1745 -0.4411 -0.8917 0.1012 -0.4398 -0.8628 0.2493 -0.4010 -0.9042 0.1472 -0.3964 -0.8569 0.3294 -0.3458 -0.9171 0.1985 -0.3381 -0.8426 0.4192 -0.2733 -0.9262 0.2595 -0.2639 -0.8044 0.5322 -0.1803 -0.9217 0.3434 -0.1677 -0.6229 0.7641 -0.0490 -0.8218 0.5677 -0.0000 0.0000 0.0000 -0.0000 0.0000 0.0000 -0.0721 0.5082 0.8582 -0.1523 0.6245 0.7661 -0.1587 0.7300 0.6648 -0.2344 0.8108 0.5364 -0.2335 0.8023 0.5494 -0.2995 0.8542 0.4250 -0.2980 0.8437 0.4464 -0.3516 0.8738 0.3359 -0.3510 0.8701 0.3461 -0.3909 0.8842 0.2555 -0.3912 0.8868 0.2460 -0.4178 0.8906 0.1795 -0.4178 0.8967 0.1464 -0.4324 0.8954 0.1062 -0.4303 0.9014 0.0481 -0.4347 0.8999 0.0349 0.0838 0.0000 -0.9965 0.0838 0.0000 -0.9965 -0.4354 -0.8990 0.0480 -0.4297 -0.9023 0.0350 -0.4329 -0.8897 0.1452 -0.4171 -0.9025 0.1070 -0.4165 -0.8760 0.2430 -0.3921 -0.9018 0.1818 -0.3867 -0.8569 0.3409 -0.3542 -0.8984 0.2596 -0.3440 -0.8299 0.4392 -0.3034 -0.8894 0.3419 -0.2893 -0.7898 0.5409 -0.2393 -0.8693 0.4325 -0.2234 -0.7207 0.6563 -0.1617 -0.8230 0.5445 -0.1426 -0.5044 0.8516 -0.0650 -0.6305 0.7735 -0.0000 0.0000 0.0000 -0.0000 0.0000 0.0000 -0.0726 0.4320 0.8989 -0.1294 0.5053 0.8532 -0.1385 0.6589 0.7394 -0.1970 0.7249 0.6601 -0.1995 0.7489 0.6320 -0.2534 0.7981 0.5466 -0.2550 0.8100 0.5281 -0.3009 0.8429 0.4460 -0.3027 0.8558 0.4195 -0.3383 0.8744 0.3478 -0.3402 0.8898 0.3042 -0.3646 0.8973 0.2489 -0.3652 0.9126 0.1836 -0.3788 0.9134 0.1491 -0.3761 0.9246 0.0609 -0.3802 0.9236 0.0493 0.0805 0.0000 -0.9968 0.0805 0.0000 -0.9968 -0.3808 -0.9227 0.0607 -0.3756 -0.9255 0.0494 -0.3790 -0.9072 0.1825 -0.3649 -0.9189 0.1500 -0.3629 -0.8817 0.3014 -0.3416 -0.9056 0.2513 -0.3338 -0.8464 0.4149 -0.3063 -0.8845 0.3519 -0.2937 -0.8007 0.5221 -0.2602 -0.8534 0.4516 -0.2448 -0.7410 0.6253 -0.2048 -0.8076 0.5531 -0.1888 -0.6534 0.7331 -0.1414 -0.7319 0.6665 -0.1237 -0.4299 0.8944 -0.0694 -0.5083 0.8584 -0.0000 0.0000 0.0000 -0.0000 0.0000 0.0000 -0.0705 0.3837 0.9208 -0.1105 0.4305 0.8958 -0.1193 0.6070 0.7857 -0.1624 0.6565 0.7367 -0.1667 0.7065 0.6878 -0.2079 0.7475 0.6308 -0.2118 0.7811 0.5874 -0.2482 0.8115 0.5291 -0.2520 0.8424 0.4763 -0.2813 0.8617 0.4224 -0.2846 0.8918 0.3517 -0.3054 0.9010 0.3080 -0.3064 0.9273 0.2151 -0.3183 0.9294 0.1869 -0.3150 0.9464 0.0718 -0.3186 0.9458 0.0623 0.0763 0.0000 -0.9971 0.0763 0.0000 -0.9971 -0.3191 -0.9450 0.0717 -0.3146 -0.9472 0.0623 -0.3184 -0.9234 0.2142 -0.3062 -0.9333 0.1877 -0.3039 -0.8863 0.3495 -0.2857 -0.9068 0.3100 -0.2778 -0.8362 0.4728 -0.2548 -0.8683 0.4256 -0.2430 -0.7752 0.5830 -0.2155 -0.8180 0.5333 -0.2022 -0.7018 0.6831 -0.1702 -0.7531 0.6355 -0.1573 -0.6038 0.7815 -0.1211 -0.6604 0.7411 -0.1075 -0.3824 0.9177 -0.0688 -0.4322 0.8992 -0.0000 0.0000 0.0000 -0.0000 0.0000 0.0000 -0.0666 0.3532 0.9332 -0.0939 0.3829 0.9190 -0.1003 0.5715 0.8144 -0.1302 0.6062 0.7846 -0.1345 0.6760 0.7245 -0.1636 0.7069 0.6881 -0.1678 0.7593 0.6287 -0.1942 0.7840 0.5896 -0.1985 0.8321 0.5179 -0.2203 0.8491 0.4801 -0.2236 0.8941 0.3881 -0.2396 0.9032 0.3562 -0.2402 0.9405 0.2402 -0.2496 0.9433 0.2188 -0.2454 0.9661 0.0807 -0.2484 0.9659 0.0733 0.0712 0.0000 -0.9975 0.0712 0.0000 -0.9975 -0.2487 -0.9652 0.0807 -0.2451 -0.9667 0.0734 -0.2498 -0.9382 0.2396 -0.2400 -0.9457 0.2194 -0.2389 -0.8907 0.3867 -0.2242 -0.9066 0.3575 -0.2184 -0.8285 0.5157 -0.1999 -0.8529 0.4822 -0.1914 -0.7560 0.6260 -0.1698 -0.7876 0.5923 -0.1606 -0.6734 0.7216 -0.1362 -0.7099 0.6910 -0.1277 -0.5697 0.8119 -0.1011 -0.6082 0.7873 -0.0925 -0.3524 0.9313 -0.0657 -0.3838 0.9211 -0.0000 0.0000 0.0000 -0.0000 0.0000 0.0000 -0.0613 0.3353 0.9401 -0.0781 0.3529 0.9324 -0.0812 0.5498 0.8313 -0.0997 0.5716 0.8145 -0.1022 0.6570 0.7470 -0.1203 0.6773 0.7258 -0.1230 0.7456 0.6550 -0.1396 0.7627 0.6315 -0.1422 0.8260 0.5455 -0.1562 0.8385 0.5220 -0.1577 0.8969 0.4131 -0.1682 0.9042 0.3926 -0.1669 0.9516 0.2579 -0.1733 0.9542 0.2437 -0.1677 0.9820 0.0871 -0.1697 0.9821 0.0821 0.0651 0.0000 -0.9979 0.0651 0.0000 -0.9979 -0.1700 -0.9816 0.0870 -0.1674 -0.9825 0.0821 -0.1736 -0.9505 0.2576 -0.1666 -0.9554 0.2440 -0.1681 -0.8954 0.4124 -0.1577 -0.9058 0.3933 -0.1556 -0.8243 0.5444 -0.1426 -0.8403 0.5231 -0.1387 -0.7440 0.6536 -0.1236 -0.7643 0.6329 -0.1192 -0.6557 0.7455 -0.1027 -0.6786 0.7273 -0.0988 -0.5490 0.8300 -0.0813 -0.5725 0.8158 -0.0777 -0.3350 0.9390 -0.0609 -0.3533 0.9335 -0.0000 0.0000 0.0000 -0.0000 0.0000 0.0000 -0.0550 0.3275 0.9433 -0.0627 0.3353 0.9400 -0.0616 0.5403 0.8392 -0.0699 0.5503 0.8320 -0.0694 0.6487 0.7579 -0.0775 0.6584 0.7486 -0.0770 0.7401 0.6680 -0.0845 0.7486 0.6576 -0.0835 0.8246 0.5595 -0.0899 0.8311 0.5488 -0.0875 0.9004 0.4261 -0.0924 0.9044 0.4166 -0.0879 0.9596 0.2672 -0.0909 0.9612 0.2605 -0.0835 0.9924 0.0904 -0.0845 0.9925 0.0880 0.0582 0.0000 -0.9983 0.0582 0.0000 -0.9983 -0.0846 -0.9923 0.0904 -0.0834 -0.9926 0.0880 -0.0912 -0.9593 0.2671 -0.0877 -0.9615 0.2606 -0.0927 -0.9000 0.4259 -0.0873 -0.9048 0.4168 -0.0900 -0.8241 0.5592 -0.0833 -0.8316 0.5492 -0.0845 -0.7397 0.6676 -0.0769 -0.7491 0.6580 -0.0775 -0.6483 0.7574 -0.0693 -0.6588 0.7491 -0.0699 -0.5400 0.8388 -0.0614 -0.5506 0.8325 -0.0626 -0.3273 0.9428 -0.0548 -0.3355 0.9405 -0.0000 0.0000 0.0000 -0.0000 0.0000 0.0000 -0.0478 0.3269 0.9438 -0.0484 0.3276 0.9436 -0.0437 0.5399 0.8406 -0.0444 0.5408 0.8400 -0.0407 0.6489 0.7598 -0.0414 0.6497 0.7590 -0.0373 0.7410 0.6704 -0.0380 0.7418 0.6695 -0.0330 0.8264 0.5621 -0.0335 0.8270 0.5612 -0.0273 0.9032 0.4284 -0.0277 0.9035 0.4276 -0.0201 0.9630 0.2688 -0.0203 0.9632 0.2682 -0.0116 0.9958 0.0909 -0.0117 0.9958 0.0907 0.0506 0.0000 -0.9987 0.0506 0.0000 -0.9987 -0.0117 -0.9958 0.0909 -0.0116 -0.9958 0.0907 -0.0204 -0.9630 0.2688 -0.0200 -0.9632 0.2682 -0.0278 -0.9031 0.4284 -0.0273 -0.9036 0.4276 -0.0336 -0.8264 0.5621 -0.0330 -0.8270 0.5612 -0.0380 -0.7410 0.6704 -0.0373 -0.7418 0.6696 -0.0414 -0.6488 0.7598 -0.0407 -0.6498 0.7591 -0.0444 -0.5398 0.8406 -0.0437 -0.5408 0.8400 -0.0485 -0.3269 0.9438 -0.0478 -0.3276 0.9436 -0.0000 0.0000 0.0000 -0.0000 0.0000 0.0000 -0.0399 0.3270 0.9442 -0.0399 0.3270 0.9442 -0.0356 0.5400 0.8409 -0.0356 0.5400 0.8409 -0.0322 0.6491 0.7601 -0.0322 0.6491 0.7601 -0.0284 0.7412 0.6706 -0.0284 0.7412 0.6706 -0.0238 0.8266 0.5622 -0.0238 0.8266 0.5622 -0.0181 0.9033 0.4285 -0.0181 0.9033 0.4285 -0.0114 0.9631 0.2688 -0.0114 0.9631 0.2688 -0.0038 0.9958 0.0910 -0.0038 0.9958 0.0910 0.0423 0.0000 -0.9991 0.0423 0.0000 -0.9991 -0.0038 -0.9958 0.0910 -0.0038 -0.9958 0.0910 -0.0114 -0.9631 0.2688 -0.0114 -0.9631 0.2688 -0.0181 -0.9033 0.4285 -0.0181 -0.9033 0.4285 -0.0238 -0.8266 0.5622 -0.0238 -0.8266 0.5622 -0.0284 -0.7412 0.6706 -0.0284 -0.7412 0.6706 -0.0322 -0.6491 0.7601 -0.0322 -0.6491 0.7601 -0.0356 -0.5400 0.8409 -0.0356 -0.5400 0.8409 -0.0399 -0.3270 0.9442 -0.0399 -0.3270 0.9442 -0.0000 0.0000 0.0000 -0.0000 0.0000 0.0000 -0.0316 0.3271 0.9445 -0.0316 0.3271 0.9445 -0.0282 0.5402 0.8411 -0.0282 0.5402 0.8411 -0.0254 0.6492 0.7602 -0.0254 0.6492 0.7602 -0.0225 0.7414 0.6707 -0.0225 0.7414 0.6707 -0.0188 0.8267 0.5623 -0.0188 0.8267 0.5623 -0.0143 0.9034 0.4286 -0.0143 0.9034 0.4286 -0.0090 0.9632 0.2688 -0.0090 0.9632 0.2688 -0.0030 0.9959 0.0910 -0.0030 0.9959 0.0910 0.0335 0.0000 -0.9994 0.0335 0.0000 -0.9994 -0.0030 -0.9959 0.0910 -0.0030 -0.9959 0.0910 -0.0090 -0.9632 0.2688 -0.0090 -0.9632 0.2688 -0.0143 -0.9034 0.4286 -0.0143 -0.9034 0.4286 -0.0188 -0.8267 0.5623 -0.0188 -0.8267 0.5623 -0.0225 -0.7414 0.6707 -0.0225 -0.7414 0.6707 -0.0254 -0.6492 0.7602 -0.0254 -0.6492 0.7602 -0.0282 -0.5402 0.8411 -0.0282 -0.5402 0.8411 -0.0316 -0.3271 0.9445 -0.0316 -0.3271 0.9445 -0.0000 0.0000 0.0000 -0.0000 0.0000 0.0000 -0.0229 0.3272 0.9447 -0.0229 0.3272 0.9447 -0.0204 0.5403 0.8412 -0.0204 0.5403 0.8412 -0.0184 0.6493 0.7603 -0.0184 0.6493 0.7603 -0.0162 0.7415 0.6708 -0.0162 0.7415 0.6708 -0.0136 0.8268 0.5623 -0.0136 0.8268 0.5623 -0.0104 0.9034 0.4286 -0.0104 0.9034 0.4286 -0.0065 0.9632 0.2688 -0.0065 0.9632 0.2688 -0.0022 0.9959 0.0910 -0.0022 0.9959 0.0910 0.0242 0.0000 -0.9997 0.0242 0.0000 -0.9997 -0.0022 -0.9959 0.0910 -0.0022 -0.9959 0.0910 -0.0065 -0.9632 0.2688 -0.0065 -0.9632 0.2688 -0.0104 -0.9034 0.4286 -0.0104 -0.9034 0.4286 -0.0136 -0.8268 0.5623 -0.0136 -0.8268 0.5623 -0.0162 -0.7415 0.6708 -0.0162 -0.7415 0.6708 -0.0184 -0.6493 0.7603 -0.0184 -0.6493 0.7603 -0.0204 -0.5403 0.8412 -0.0204 -0.5403 0.8412 -0.0229 -0.3272 0.9447 -0.0229 -0.3272 0.9447 -0.0000 0.0000 0.0000 -0.0000 0.0000 0.0000 -0.0138 0.3273 0.9448 -0.0138 0.3273 0.9448 -0.0123 0.5403 0.8414 -0.0123 0.5403 0.8414 -0.0111 0.6494 0.7604 -0.0111 0.6494 0.7604 -0.0098 0.7415 0.6709 -0.0098 0.7415 0.6709 -0.0082 0.8268 0.5624 -0.0082 0.8268 0.5624 -0.0063 0.9035 0.4286 -0.0063 0.9035 0.4286 -0.0039 0.9632 0.2688 -0.0039 0.9632 0.2688 -0.0013 0.9959 0.0910 -0.0013 0.9959 0.0910 0.0147 0.0000 -0.9999 0.0147 0.0000 -0.9999 -0.0013 -0.9959 0.0910 -0.0013 -0.9959 0.0910 -0.0039 -0.9632 0.2688 -0.0039 -0.9632 0.2688 -0.0063 -0.9035 0.4286 -0.0063 -0.9035 0.4286 -0.0082 -0.8268 0.5624 -0.0082 -0.8268 0.5624 -0.0098 -0.7415 0.6709 -0.0098 -0.7415 0.6709 -0.0111 -0.6494 0.7604 -0.0111 -0.6494 0.7604 -0.0123 -0.5403 0.8414 -0.0123 -0.5403 0.8414 -0.0138 -0.3273 0.9448 -0.0138 -0.3273 0.9448 -0.0000 0.0000 0.0000 -0.0000 0.0000 0.0000 -0.0046 0.3273 0.9449 -0.0046 0.3273 0.9449 -0.0041 0.5404 0.8414 -0.0041 0.5404 0.8414 -0.0037 0.6494 0.7604 -0.0037 0.6494 0.7604 -0.0033 0.7415 0.6709 -0.0033 0.7415 0.6709 -0.0028 0.8269 0.5624 -0.0028 0.8269 0.5624 -0.0021 0.9035 0.4286 -0.0021 0.9035 0.4286 -0.0013 0.9632 0.2688 -0.0013 0.9632 0.2688 -0.0004 0.9959 0.0910 -0.0004 0.9959 0.0910 0.0049 0.0000 -1.0000 0.0049 0.0000 -1.0000 -0.0004 -0.9959 0.0910 -0.0004 -0.9959 0.0910 -0.0013 -0.9632 0.2688 -0.0013 -0.9632 0.2688 -0.0021 -0.9035 0.4286 -0.0021 -0.9035 0.4286 -0.0028 -0.8269 0.5624 -0.0028 -0.8269 0.5624 -0.0033 -0.7415 0.6709 -0.0033 -0.7415 0.6709 -0.0037 -0.6494 0.7604 -0.0037 -0.6494 0.7604 -0.0041 -0.5404 0.8414 -0.0041 -0.5404 0.8414 -0.0046 -0.3273 0.9449 -0.0046 -0.3273 0.9449 -0.0000 0.0000 0.0000 -0.0000 0.0000 0.0000 0.0046 0.3273 0.9449 0.0046 0.3273 0.9449 0.0041 0.5404 0.8414 0.0041 0.5404 0.8414 0.0037 0.6494 0.7604 0.0037 0.6494 0.7604 0.0033 0.7415 0.6709 0.0033 0.7415 0.6709 0.0028 0.8269 0.5624 0.0028 0.8269 0.5624 0.0021 0.9035 0.4286 0.0021 0.9035 0.4286 0.0013 0.9632 0.2688 0.0013 0.9632 0.2688 0.0004 0.9959 0.0910 0.0004 0.9959 0.0910 -0.0049 0.0000 -1.0000 -0.0049 0.0000 -1.0000 0.0004 -0.9959 0.0910 0.0004 -0.9959 0.0910 0.0013 -0.9632 0.2688 0.0013 -0.9632 0.2688 0.0021 -0.9035 0.4286 0.0021 -0.9035 0.4286 0.0028 -0.8269 0.5624 0.0028 -0.8269 0.5624 0.0033 -0.7415 0.6709 0.0033 -0.7415 0.6709 0.0037 -0.6494 0.7604 0.0037 -0.6494 0.7604 0.0041 -0.5404 0.8414 0.0041 -0.5404 0.8414 0.0046 -0.3273 0.9449 0.0046 -0.3273 0.9449 0.0000 0.0000 0.0000 0.0000 0.0000 0.0000 0.0138 0.3273 0.9448 0.0138 0.3273 0.9448 0.0123 0.5403 0.8414 0.0123 0.5403 0.8414 0.0111 0.6494 0.7604 0.0111 0.6494 0.7604 0.0098 0.7415 0.6709 0.0098 0.7415 0.6709 0.0082 0.8268 0.5624 0.0082 0.8268 0.5624 0.0063 0.9035 0.4286 0.0063 0.9035 0.4286 0.0039 0.9632 0.2688 0.0039 0.9632 0.2688 0.0013 0.9959 0.0910 0.0013 0.9959 0.0910 -0.0147 0.0000 -0.9999 -0.0147 0.0000 -0.9999 0.0013 -0.9959 0.0910 0.0013 -0.9959 0.0910 0.0039 -0.9632 0.2688 0.0039 -0.9632 0.2688 0.0063 -0.9035 0.4286 0.0063 -0.9035 0.4286 0.0082 -0.8268 0.5624 0.0082 -0.8268 0.5624 0.0098 -0.7415 0.6709 0.0098 -0.7415 0.6709 0.0111 -0.6494 0.7604 0.0111 -0.6494 0.7604 0.0123 -0.5403 0.8414 0.0123 -0.5403 0.8414 0.0138 -0.3273 0.9448 0.0138 -0.3273 0.9448 0.0000 0.0000 0.0000 0.0000 0.0000 0.0000 0.0229 0.3272 0.9447 0.0229 0.3272 0.9447 0.0204 0.5403 0.8412 0.0204 0.5403 0.8412 0.0184 0.6493 0.7603 0.0184 0.6493 0.7603 0.0162 0.7415 0.6708 0.0162 0.7415 0.6708 0.0136 0.8268 0.5623 0.0136 0.8268 0.5623 0.0104 0.9034 0.4286 0.0104 0.9034 0.4286 0.0065 0.9632 0.2688 0.0065 0.9632 0.2688 0.0022 0.9959 0.0910 0.0022 0.9959 0.0910 -0.0242 0.0000 -0.9997 -0.0242 0.0000 -0.9997 0.0022 -0.9959 0.0910 0.0022 -0.9959 0.0910 0.0065 -0.9632 0.2688 0.0065 -0.9632 0.2688 0.0104 -0.9034 0.4286 0.0104 -0.9034 0.4286 0.0136 -0.8268 0.5623 0.0136 -0.8268 0.5623 0.0162 -0.7415 0.6708 0.0162 -0.7415 0.6708 0.0184 -0.6493 0.7603 0.0184 -0.6493 0.7603 0.0204 -0.5403 0.8412 0.0204 -0.5403 0.8412 0.0229 -0.3272 0.9447 0.0229 -0.3272 0.9447 0.0000 0.0000 0.0000 0.0000 0.0000 0.0000 0.0316 0.3271 0.9445 0.0316 0.3271 0.9445 0.0282 0.5402 0.8411 0.0282 0.5402 0.8411 0.0254 0.6492 0.7602 0.0254 0.6492 0.7602 0.0225 0.7414 0.6707 0.0225 0.7414 0.6707 0.0188 0.8267 0.5623 0.0188 0.8267 0.5623 0.0143 0.9034 0.4286 0.0143 0.9034 0.4286 0.0090 0.9632 0.2688 0.0090 0.9632 0.2688 0.0030 0.9959 0.0910 0.0030 0.9959 0.0910 -0.0335 0.0000 -0.9994 -0.0335 0.0000 -0.9994 0.0030 -0.9959 0.0910 0.0030 -0.9959 0.0910 0.0090 -0.9632 0.2688 0.0090 -0.9632 0.2688 0.0143 -0.9034 0.4286 0.0143 -0.9034 0.4286 0.0188 -0.8267 0.5623 0.0188 -0.8267 0.5623 0.0225 -0.7414 0.6707 0.0225 -0.7414 0.6707 0.0254 -0.6492 0.7602 0.0254 -0.6492 0.7602 0.0282 -0.5402 0.8411 0.0282 -0.5402 0.8411 0.0316 -0.3271 0.9445 0.0316 -0.3271 0.9445 0.0000 0.0000 0.0000 0.0000 0.0000 0.0000 0.0399 0.3270 0.9442 0.0399 0.3270 0.9442 0.0356 0.5400 0.8409 0.0356 0.5400 0.8409 0.0322 0.6491 0.7601 0.0322 0.6491 0.7601 0.0284 0.7412 0.6706 0.0284 0.7412 0.6706 0.0238 0.8266 0.5622 0.0238 0.8266 0.5622 0.0181 0.9033 0.4285 0.0181 0.9033 0.4285 0.0114 0.9631 0.2688 0.0114 0.9631 0.2688 0.0038 0.9958 0.0910 0.0038 0.9958 0.0910 -0.0423 0.0000 -0.9991 -0.0423 0.0000 -0.9991 0.0038 -0.9958 0.0910 0.0038 -0.9958 0.0910 0.0114 -0.9631 0.2688 0.0114 -0.9631 0.2688 0.0181 -0.9033 0.4285 0.0181 -0.9033 0.4285 0.0238 -0.8266 0.5622 0.0238 -0.8266 0.5622 0.0284 -0.7412 0.6706 0.0284 -0.7412 0.6706 0.0322 -0.6491 0.7601 0.0322 -0.6491 0.7601 0.0356 -0.5400 0.8409 0.0356 -0.5400 0.8409 0.0399 -0.3270 0.9442 0.0399 -0.3270 0.9442 0.0000 0.0000 0.0000 0.0000 0.0000 0.0000 0.0478 0.3269 0.9438 0.0478 0.3269 0.9438 0.0426 0.5399 0.8407 0.0426 0.5399 0.8407 0.0385 0.6489 0.7599 0.0385 0.6489 0.7599 0.0339 0.7411 0.6705 0.0339 0.7411 0.6705 0.0285 0.8265 0.5622 0.0285 0.8265 0.5622 0.0217 0.9033 0.4285 0.0217 0.9033 0.4285 0.0136 0.9631 0.2688 0.0136 0.9631 0.2688 0.0046 0.9958 0.0910 0.0046 0.9958 0.0910 -0.0506 0.0000 -0.9987 -0.0506 0.0000 -0.9987 0.0046 -0.9958 0.0910 0.0046 -0.9958 0.0910 0.0136 -0.9631 0.2688 0.0136 -0.9631 0.2688 0.0217 -0.9033 0.4285 0.0217 -0.9033 0.4285 0.0285 -0.8265 0.5622 0.0285 -0.8265 0.5622 0.0339 -0.7411 0.6705 0.0339 -0.7411 0.6705 0.0385 -0.6489 0.7599 0.0385 -0.6489 0.7599 0.0426 -0.5399 0.8407 0.0426 -0.5399 0.8407 0.0478 -0.3269 0.9438 0.0478 -0.3269 0.9438 0.0000 0.0000 0.0000 0.0000 0.0000 0.0000 0.0550 0.3268 0.9435 0.0550 0.3268 0.9435 0.0490 0.5397 0.8404 0.0490 0.5397 0.8404 0.0443 0.6488 0.7597 0.0443 0.6488 0.7597 0.0391 0.7410 0.6704 0.0391 0.7410 0.6704 0.0328 0.8264 0.5621 0.0328 0.8264 0.5621 0.0250 0.9032 0.4285 0.0250 0.9032 0.4285 0.0157 0.9631 0.2688 0.0157 0.9631 0.2688 0.0053 0.9958 0.0910 0.0053 0.9958 0.0910 -0.0582 0.0000 -0.9983 -0.0582 0.0000 -0.9983 0.0053 -0.9958 0.0910 0.0053 -0.9958 0.0910 0.0157 -0.9631 0.2688 0.0157 -0.9631 0.2688 0.0250 -0.9032 0.4285 0.0250 -0.9032 0.4285 0.0328 -0.8264 0.5621 0.0328 -0.8264 0.5621 0.0391 -0.7410 0.6704 0.0391 -0.7410 0.6704 0.0443 -0.6488 0.7597 0.0443 -0.6488 0.7597 0.0490 -0.5397 0.8404 0.0490 -0.5397 0.8404 0.0550 -0.3268 0.9435 0.0550 -0.3268 0.9435 0.0000 0.0000 0.0000 0.0000 0.0000 0.0000 0.0615 0.3267 0.9431 0.0615 0.3267 0.9431 0.0548 0.5396 0.8402 0.0548 0.5396 0.8402 0.0495 0.6486 0.7595 0.0495 0.6486 0.7595 0.0437 0.7408 0.6703 0.0437 0.7408 0.6703 0.0367 0.8263 0.5620 0.0367 0.8263 0.5620 0.0279 0.9031 0.4284 0.0279 0.9031 0.4284 0.0175 0.9630 0.2688 0.0175 0.9630 0.2688 0.0059 0.9958 0.0910 0.0059 0.9958 0.0910 -0.0651 0.0000 -0.9979 -0.0651 0.0000 -0.9979 0.0059 -0.9958 0.0910 0.0059 -0.9958 0.0910 0.0175 -0.9630 0.2688 0.0175 -0.9630 0.2688 0.0279 -0.9031 0.4284 0.0279 -0.9031 0.4284 0.0367 -0.8263 0.5620 0.0367 -0.8263 0.5620 0.0437 -0.7408 0.6703 0.0437 -0.7408 0.6703 0.0495 -0.6486 0.7595 0.0495 -0.6486 0.7595 0.0548 -0.5396 0.8402 0.0548 -0.5396 0.8402 0.0615 -0.3267 0.9431 0.0615 -0.3267 0.9431 0.0000 0.0000 0.0000 0.0000 0.0000 0.0000 0.0673 0.3265 0.9428 0.0673 0.3265 0.9428 0.0599 0.5394 0.8399 0.0599 0.5394 0.8399 0.0542 0.6484 0.7593 0.0542 0.6484 0.7593 0.0478 0.7407 0.6701 0.0478 0.7407 0.6701 0.0401 0.8262 0.5619 0.0401 0.8262 0.5619 0.0306 0.9031 0.4284 0.0306 0.9031 0.4284 0.0192 0.9630 0.2688 0.0192 0.9630 0.2688 0.0065 0.9958 0.0910 0.0065 0.9958 0.0910 -0.0712 0.0000 -0.9975 -0.0712 0.0000 -0.9975 0.0065 -0.9958 0.0910 0.0065 -0.9958 0.0910 0.0192 -0.9630 0.2688 0.0192 -0.9630 0.2688 0.0306 -0.9031 0.4284 0.0306 -0.9031 0.4284 0.0401 -0.8262 0.5619 0.0401 -0.8262 0.5619 0.0478 -0.7407 0.6701 0.0478 -0.7407 0.6701 0.0542 -0.6484 0.7593 0.0542 -0.6484 0.7593 0.0599 -0.5394 0.8399 0.0599 -0.5394 0.8399 0.0673 -0.3265 0.9428 0.0673 -0.3265 0.9428 0.0000 0.0000 0.0000 0.0000 0.0000 0.0000 0.0722 0.3264 0.9425 0.0722 0.3264 0.9425 0.0643 0.5393 0.8397 0.0643 0.5393 0.8397 0.0581 0.6483 0.7592 0.0581 0.6483 0.7592 0.0513 0.7406 0.6700 0.0513 0.7406 0.6700 0.0430 0.8261 0.5619 0.0430 0.8261 0.5619 0.0328 0.9030 0.4284 0.0328 0.9030 0.4284 0.0206 0.9630 0.2688 0.0206 0.9630 0.2688 0.0070 0.9958 0.0910 0.0070 0.9958 0.0910 -0.0763 0.0000 -0.9971 -0.0763 0.0000 -0.9971 0.0070 -0.9958 0.0910 0.0070 -0.9958 0.0910 0.0206 -0.9630 0.2688 0.0206 -0.9630 0.2688 0.0328 -0.9030 0.4284 0.0328 -0.9030 0.4284 0.0430 -0.8261 0.5619 0.0430 -0.8261 0.5619 0.0513 -0.7406 0.6700 0.0513 -0.7406 0.6700 0.0581 -0.6483 0.7592 0.0581 -0.6483 0.7592 0.0643 -0.5393 0.8397 0.0643 -0.5393 0.8397 0.0722 -0.3264 0.9425 0.0722 -0.3264 0.9425 0.0000 0.0000 0.0000 0.0000 0.0000 0.0000 0.0758 0.3376 0.9382 0.0868 0.3260 0.9414 0.0852 0.5530 0.8288 0.0971 0.5378 0.8374 0.0963 0.6606 0.7445 0.1078 0.6456 0.7560 0.1070 0.7498 0.6529 0.1177 0.7364 0.6662 0.1161 0.8310 0.5440 0.1254 0.8203 0.5580 0.1218 0.9029 0.4123 0.1293 0.8959 0.4250 0.1224 0.9585 0.2575 0.1275 0.9553 0.2666 0.1167 0.9893 0.0870 0.1185 0.9888 0.0903 -0.0805 0.0000 -0.9968 -0.0805 0.0000 -0.9968 0.1183 -0.9892 0.0870 0.1170 -0.9890 0.0903 0.1270 -0.9579 0.2573 0.1229 -0.9559 0.2668 0.1289 -0.9021 0.4119 0.1222 -0.8967 0.4254 0.1252 -0.8301 0.5434 0.1164 -0.8212 0.5586 0.1177 -0.7489 0.6521 0.1073 -0.7373 0.6670 0.1079 -0.6598 0.7437 0.0965 -0.6464 0.7569 0.0971 -0.5524 0.8279 0.0855 -0.5384 0.8383 0.0869 -0.3373 0.9374 0.0761 -0.3263 0.9422 0.0000 0.0000 0.0000 0.0000 0.0000 0.0000 0.0777 0.3731 0.9245 0.1095 0.3366 0.9353 0.1214 0.5947 0.7948 0.1525 0.5485 0.8221 0.1646 0.6957 0.6992 0.1927 0.6512 0.7340 0.2059 0.7729 0.6002 0.2305 0.7338 0.6390 0.2430 0.8377 0.4891 0.2640 0.8070 0.5283 0.2729 0.8910 0.3628 0.2898 0.8706 0.3975 0.2926 0.9299 0.2228 0.3041 0.9200 0.2471 0.2992 0.9513 0.0746 0.3036 0.9491 0.0834 -0.0838 0.0000 -0.9965 -0.0838 0.0000 -0.9965 0.3031 -0.9500 0.0745 0.2997 -0.9504 0.0835 0.3040 -0.9265 0.2219 0.2928 -0.9234 0.2481 0.2912 -0.8860 0.3608 0.2718 -0.8754 0.3997 0.2673 -0.8322 0.4858 0.2404 -0.8121 0.5317 0.2351 -0.7677 0.5961 0.2026 -0.7385 0.6431 0.1975 -0.6914 0.6950 0.1616 -0.6549 0.7382 0.1564 -0.5917 0.7908 0.1200 -0.5510 0.8258 0.1116 -0.3719 0.9216 0.0788 -0.3375 0.9380 0.0000 0.0000 0.0000 0.0000 0.0000 0.0000 0.0781 0.4161 0.9060 0.1136 0.3718 0.9213 0.1242 0.6433 0.7555 0.1581 0.5916 0.7906 0.1686 0.7388 0.6525 0.1989 0.6912 0.6947 0.2099 0.8076 0.5511 0.2363 0.7674 0.5960 0.2460 0.8624 0.4424 0.2683 0.8319 0.4857 0.2743 0.9054 0.3239 0.2920 0.8858 0.3607 0.2925 0.9357 0.1970 0.3044 0.9263 0.2219 0.2989 0.9520 0.0656 0.3033 0.9500 0.0745 -0.0859 0.0000 -0.9963 -0.0859 0.0000 -0.9963 0.3028 -0.9508 0.0655 0.2994 -0.9512 0.0746 0.3040 -0.9322 0.1962 0.2930 -0.9298 0.2227 0.2929 -0.9003 0.3221 0.2737 -0.8908 0.3627 0.2709 -0.8565 0.4393 0.2440 -0.8375 0.4889 0.2404 -0.8018 0.5471 0.2071 -0.7727 0.6000 0.2035 -0.7339 0.6481 0.1660 -0.6955 0.6991 0.1621 -0.6398 0.7513 0.1231 -0.5945 0.7946 0.1159 -0.4145 0.9026 0.0797 -0.3730 0.9244 0.0000 0.0000 0.0000 0.0000 0.0000 0.0000 0.0768 0.4689 0.8799 0.1168 0.4145 0.9025 0.1256 0.6973 0.7057 0.1629 0.6397 0.7512 0.1713 0.7840 0.5967 0.2041 0.7338 0.6480 0.2126 0.8423 0.4953 0.2410 0.8017 0.5470 0.2477 0.8861 0.3917 0.2714 0.8564 0.4393 0.2748 0.9188 0.2833 0.2932 0.9002 0.3220 0.2920 0.9410 0.1707 0.3042 0.9322 0.1962 0.2984 0.9528 0.0566 0.3028 0.9508 0.0655 -0.0870 0.0000 -0.9962 -0.0870 0.0000 -0.9962 0.3023 -0.9515 0.0565 0.2989 -0.9520 0.0656 0.3036 -0.9375 0.1701 0.2927 -0.9357 0.1969 0.2936 -0.9135 0.2817 0.2746 -0.9054 0.3239 0.2734 -0.8798 0.3889 0.2464 -0.8623 0.4423 0.2443 -0.8359 0.4916 0.2105 -0.8075 0.5510 0.2082 -0.7783 0.5924 0.1693 -0.7387 0.6524 0.1666 -0.6930 0.7014 0.1250 -0.6433 0.7554 0.1194 -0.4669 0.8762 0.0791 -0.4160 0.9059 0.0000 0.0000 0.0000 0.0000 0.0000 0.0000 -0.0000 0.0000 -1.0000 0.0000 0.0000 -0.0000 -0.0000 0.0000 -1.0000 0.0000 0.0000 -1.0000 -0.0000 0.0000 -1.0000 0.0000 0.0000 -1.0000 -0.0000 0.0000 -1.0000 0.0000 0.0000 -1.0000 -0.0000 0.0000 -1.0000 0.0000 0.0000 -1.0000 -0.0000 0.0000 -1.0000 0.0000 0.0000 -1.0000 -0.0000 0.0000 -1.0000 0.0000 0.0000 -1.0000 -0.0000 0.0000 -1.0000 0.0000 0.0000 -1.0000 -0.0000 0.0000 -1.0000 0.0000 0.0000 -1.0000 0.0000 0.0000 -1.0000 0.0000 0.0000 -1.0000 0.0000 0.0000 -1.0000 0.0000 0.0000 -1.0000 0.0000 0.0000 -1.0000 0.0000 0.0000 -1.0000 0.0000 0.0000 -1.0000 0.0000 0.0000 -1.0000 0.0000 0.0000 -1.0000 0.0000 0.0000 -1.0000 0.0000 0.0000 -1.0000 0.0000 0.0000 -1.0000 0.0000 0.0000 -1.0000 0.0000 0.0000 -1.0000 0.0000 0.0000 -1.0000 0.0000 0.0000 -1.0000 0.0000 0.0000 -1.0000 0.0000 0.0000 -1.0000 0.0000 0.0000 -1.0000 0.0000 0.0000 -1.0000 0.0000 0.0000 -1.0000 0.0000 0.0000 -1.0000 0.0000 0.0000 -1.0000 0.0000 0.0000 -1.0000 0.0000 0.0000 -1.0000 0.0000 0.0000 -1.0000 0.0000 0.0000 -1.0000 0.0000 0.0000 -1.0000 0.0000 0.0000 -1.0000 0.0000 0.0000 -1.0000 0.0000 0.0000 -1.0000 0.0000 0.0000 -1.0000 0.0000 0.0000 -1.0000 0.0000 0.0000 -1.0000 0.0000 0.0000 -1.0000 0.0000 0.0000 -1.0000 0.0000 0.0000 -1.0000 0.0000 0.0000 -1.0000</float_array>
          <technique_common>
            <accessor source="#hull-nrm-arr" count="1064" stride="3">
              <param name="X" type="float"/>
              <param name="Y" type="float"/>
              <param name="Z" type="float"/>
            </accessor>
          </technique_common>
        </source>
        <vertices id="hull-vtx">
          <input semantic="POSITION" source="#hull-pos"/>
        </vertices>
        <triangles material="hull-sym" count="1064">
          <input semantic="VERTEX" source="#hull-vtx" offset="0"/>
          <input semantic="NORMAL" source="#hull-nrm" offset="1"/>
          <p>0 0 18 0 19 0 0 1 19 1 1 1 1 2 19 2 20 2 1 3 20 3 2 3 2 4 20 4 21 4 2 5 21 5 3 5 3 6 21 6 22 6 3 7 22 7 4 7 4 8 22 8 23 8 4 9 23 9 5 9 5 10 23 10 24 10 5 11 24 11 6 11 6 12 24 12 25 12 6 13 25 13 7 13 7 14 25 14 26 14 7 15 26 15 8 15 8 16 26 16 27 16 8 17 27 17 9 17 9 18 27 18 28 18 9 19 28 19 10 19 10 20 28 20 29 20 10 21 29 21 11 21 11 22 29 22 30 22 11 23 30 23 12 23 12 24 30 24 31 24 12 25 31 25 13 25 13 26 31 26 32 26 13 27 32 27 14 27 14 28 32 28 33 28 14 29 33 29 15 29 15 30 33 30 34 30 15 31 34 31 16 31 16 32 34 32 35 32 16 33 35 33 17 33 17 34 35 34 18 34 17 35 18 35 0 35 18 36 36 36 37 36 18 37 37 37 19 37 19 38 37 38 38 38 19 39 38 39 20 39 20 40 38 40 39 40 20 41 39 41 21 41 21 42 39 42 40 42 21 43 40 43 22 43 22 44 40 44 41 44 22 45 41 45 23 45 23 46 41 46 42 46 23 47 42 47 24 47 24 48 42 48 43 48 24 49 43 49 25 49 25 50 43 50 44 50 25 51 44 51 26 51 26 52 44 52 45 52 26 53 45 53 27 53 27 54 45 54 46 54 27 55 46 55 28 55 28 56 46 56 47 56 28 57 47 57 29 57 29 58 47 58 48 58 29 59 48 59 30 59 30 60 48 60 49 60 30 61 49 61 31 61 31 62 49 62 50 62 31 63 50 63 32 63 32 64 50 64 51 64 32 65 51 65 33 65 33 66 51 66 52 66 33 67 52 67 34 67 34 68 52 68 53 68 34 69 53 69 35 69 35 70 53 70 36 70 35 71 36 71 18 71 36 72 54 72 55 72 36 73 55 73 37 73 37 74 55 74 56 74 37 75 56 75 38 75 38 76 56 76 57 76 38 77 57 77 39 77 39 78 57 78 58 78 39 79 58 79 40 79 40 80 58 80 59 80 40 81 59 81 41 81 41 82 59 82 60 82 41 83 60 83 42 83 42 84 60 84 61 84 42 85 61 85 43 85 43 86 61 86 62 86 43 87 62 87 44 87 44 88 62 88 63 88 44 89 63 89 45 89 45 90 63 90 64 90 45 91 64 91 46 91 46 92 64 92 65 92 46 93 65 93 47 93 47 94 65 94 66 94 47 95 66 95 48 95 48 96 66 96 67 96 48 97 67 97 49 97 49 98 67 98 68 98 49 99 68 99 50 99 50 100 68 100 69 100 50 101 69 101 51 101 51 102 69 102 70 102 51 103 70 103 52 103 52 104 70 104 71 104 52 105 71 105 53 105 53 106 71 106 54 106 53 107 54 107 36 107 54 108 72 108 73 108 54 109 73 109 55 109 55 110 73 110 74 110 55 111 74 111 56 111 56 112 74 112 75 112 56 113 75 113 57 113 57 114 75 114 76 114 57 115 76 115 58 115 58 116 76 116 77 116 58 117 77 117 59 117 59 118 77 118 78 118 59 119 78 119 60 119 60 120 78 120 79 120 60 121 79 121 61 121 61 122 79 122 80 122 61 123 80 123 62 123 62 124 80 124 81 124 62 125 81 125 63 125 63 126 81 126 82 126 63 127 82 127 64 127 64 128 82 128 83 128 64 129 83 129 65 129 65 130 83 130 84 130 65 131 84 131 66 131 66 132 84 132 85 132 66 133 85 133 67 133 67 134 85 134 86 134 67 135 86 135 68 135 68 136 86 136 87 136 68 137 87 137 69 137 69 138 87 138 88 138 69 139 88 139 70 139 70 140 88 140 89 140 70 141 89 141 71 141 71 142 89 142 72 142 71 143 72 143 54 143 72 144 90 144 91 144 72 145 91 145 73 145 73 146 91 146 92 146 73 147 92 147 74 147 74 148 92 148 93 148 74 149 93 149 75 149 75 150 93 150 94 150 75 151 94 151 76 151 76 152 94 152 95 152 76 153 95 153 77 153 77 154 95 154 96 154 77 155 96 155 78 155 78 156 96 156 97 156 78 157 97 157 79 157 79 158 97 158 98 158 79 159 98 159 80 159 80 160 98 160 99 160 80 161 99 161 81 161 81 162 99 162 100 162 81 163 100 163 82 163 82 164 100 164 101 164 82 165 101 165 83 165 83 166 101 166 102 166 83 167 102 167 84 167 84 168 102 168 103 168 84 169 103 169 85 169 85 170 103 170 104 170 85 171 104 171 86 171 86 172 104 172 105 172 86 173 105 173 87 173 87 174 105 174 106 174 87 175 106 175 88 175 88 176 106 176 107 176 88 177 107 177 89 177 89 178 107 178 90 178 89 179 90 179 72 179 90 180 108 180 109 180 90 181 109 181 91 181 91 182 109 182 110 182 91 183 110 183 92 183 92 184 110 184 111 184 92 185 111 185 93 185 93 186 111 186 112 186 93 187 112 187 94 187 94 188 112 188 113 188 94 189 113 189 95 189 95 190 113 190 114 190 95 191 114 191 96 191 96 192 114 192 115 192 96 193 115 193 97 193 97 194 115 194 116 194 97 195 116 195 98 195 98 196 116 196 117 196 98 197 117 197 99 197 99 198 117 198 118 198 99 199 118 199 100 199 100 200 118 200 119 200 100 201 119 201 101 201 101 202 119 202 120 202 101 203 120 203 102 203 102 204 120 204 121 204 102 205 121 205 103 205 103 206 121 206 122 206 103 207 122 207 104 207 104 208 122 208 123 208 104 209 123 209 105 209 105 210 123 210 124 210 105 211 124 211 106 211 106 212 124 212 125 212 106 213 125 213 107 213 107 214 125 214 108 214 107 215 108 215 90 215 108 216 126 216 127 216 108 217 127 217 109 217 109 218 127 218 128 218 109 219 128 219 110 219 110 220 128 220 129 220 110 221 129 221 111 221 111 222 129 222 130 222 111 223 130 223 112 223 112 224 130 224 131 224 112 225 131 225 113 225 113 226 131 226 132 226 113 227 132 227 114 227 114 228 132 228 133 228 114 229 133 229 115 229 115 230 133 230 134 230 115 231 134 231 116 231 116 232 134 232 135 232 116 233 135 233 117 233 117 234 135 234 136 234 117 235 136 235 118 235 118 236 136 236 137 236 118 237 137 237 119 237 119 238 137 238 138 238 119 239 138 239 120 239 120 240 138 240 139 240 120 241 139 241 121 241 121 242 139 242 140 242 121 243 140 243 122 243 122 244 140 244 141 244 122 245 141 245 123 245 123 246 141 246 142 246 123 247 142 247 124 247 124 248 142 248 143 248 124 249 143 249 125 249 125 250 143 250 126 250 125 251 126 251 108 251 126 252 144 252 145 252 126 253 145 253 127 253 127 254 145 254 146 254 127 255 146 255 128 255 128 256 146 256 147 256 128 257 147 257 129 257 129 258 147 258 148 258 129 259 148 259 130 259 130 260 148 260 149 260 130 261 149 261 131 261 131 262 149 262 150 262 131 263 150 263 132 263 132 264 150 264 151 264 132 265 151 265 133 265 133 266 151 266 152 266 133 267 152 267 134 267 134 268 152 268 153 268 134 269 153 269 135 269 135 270 153 270 154 270 135 271 154 271 136 271 136 272 154 272 155 272 136 273 155 273 137 273 137 274 155 274 156 274 137 275 156 275 138 275 138 276 156 276 157 276 138 277 157 277 139 277 139 278 157 278 158 278 139 279 158 279 140 279 140 280 158 280 159 280 140 281 159 281 141 281 141 282 159 282 160 282 141 283 160 283 142 283 142 284 160 284 161 284 142 285 161 285 143 285 143 286 161 286 144 286 143 287 144 287 126 287 144 288 162 288 163 288 144 289 163 289 145 289 145 290 163 290 164 290 145 291 164 291 146 291 146 292 164 292 165 292 146 293 165 293 147 293 147 294 165 294 166 294 147 295 166 295 148 295 148 296 166 296 167 296 148 297 167 297 149 297 149 298 167 298 168 298 149 299 168 299 150 299 150 300 168 300 169 300 150 301 169 301 151 301 151 302 169 302 170 302 151 303 170 303 152 303 152 304 170 304 171 304 152 305 171 305 153 305 153 306 171 306 172 306 153 307 172 307 154 307 154 308 172 308 173 308 154 309 173 309 155 309 155 310 173 310 174 310 155 311 174 311 156 311 156 312 174 312 175 312 156 313 175 313 157 313 157 314 175 314 176 314 157 315 176 315 158 315 158 316 176 316 177 316 158 317 177 317 159 317 159 318 177 318 178 318 159 319 178 319 160 319 160 320 178 320 179 320 160 321 179 321 161 321 161 322 179 322 162 322 161 323 162 323 144 323 162 324 180 324 181 324 162 325 181 325 163 325 163 326 181 326 182 326 163 327 182 327 164 327 164 328 182 328 183 328 164 329 183 329 165 329 165 330 183 330 184 330 165 331 184 331 166 331 166 332 184 332 185 332 166 333 185 333 167 333 167 334 185 334 186 334 167 335 186 335 168 335 168 336 186 336 187 336 168 337 187 337 169 337 169 338 187 338 188 338 169 339 188 339 170 339 170 340 188 340 189 340 170 341 189 341 171 341 171 342 189 342 190 342 171 343 190 343 172 343 172 344 190 344 191 344 172 345 191 345 173 345 173 346 191 346 192 346 173 347 192 347 174 347 174 348 192 348 193 348 174 349 193 349 175 349 175 350 193 350 194 350 175 351 194 351 176 351 176 352 194 352 195 352 176 353 195 353 177 353 177 354 195 354 196 354 177 355 196 355 178 355 178 356 196 356 197 356 178 357 197 357 179 357 179 358 197 358 180 358 179 359 180 359 162 359 180 360 198 360 199 360 180 361 199 361 181 361 181 362 199 362 200 362 181 363 200 363 182 363 182 364 200 364 201 364 182 365 201 365 183 365 183 366 201 366 202 366 183 367 202 367 184 367 184 368 202 368 203 368 184 369 203 369 185 369 185 370 203 370 204 370 185 371 204 371 186 371 186 372 204 372 205 372 186 373 205 373 187 373 187 374 205 374 206 374 187 375 206 375 188 375 188 376 206 376 207 376 188 377 207 377 189 377 189 378 207 378 208 378 189 379 208 379 190 379 190 380 208 380 209 380 190 381 209 381 191 381 191 382 209 382 210 382 191 383 210 383 192 383 192 384 210 384 211 384 192 385 211 385 193 385 193 386 211 386 212 386 193 387 212 387 194 387 194 388 212 388 213 388 194 389 213 389 195 389 195 390 213 390 214 390 195 391 214 391 196 391 196 392 214 392 215 392 196 393 215 393 197 393 197 394 215 394 198 394 197 395 198 395 180 395 198 396 216 396 217 396 198 397 217 397 199 397 199 398 217 398 218 398 199 399 218 399 200 399 200 400 218 400 219 400 200 401 219 401 201 401 201 402 219 402 220 402 201 403 220 403 202 403 202 404 220 404 221 404 202 405 221 405 203 405 203 406 221 406 222 406 203 407 222 407 204 407 204 408 222 408 223 408 204 409 223 409 205 409 205 410 223 410 224 410 205 411 224 411 206 411 206 412 224 412 225 412 206 413 225 413 207 413 207 414 225 414 226 414 207 415 226 415 208 415 208 416 226 416 227 416 208 417 227 417 209 417 209 418 227 418 228 418 209 419 228 419 210 419 210 420 228 420 229 420 210 421 229 421 211 421 211 422 229 422 230 422 211 423 230 423 212 423 212 424 230 424 231 424 212 425 231 425 213 425 213 426 231 426 232 426 213 427 232 427 214 427 214 428 232 428 233 428 214 429 233 429 215 429 215 430 233 430 216 430 215 431 216 431 198 431 216 432 234 432 235 432 216 433 235 433 217 433 217 434 235 434 236 434 217 435 236 435 218 435 218 436 236 436 237 436 218 437 237 437 219 437 219 438 237 438 238 438 219 439 238 439 220 439 220 440 238 440 239 440 220 441 239 441 221 441 221 442 239 442 240 442 221 443 240 443 222 443 222 444 240 444 241 444 222 445 241 445 223 445 223 446 241 446 242 446 223 447 242 447 224 447 224 448 242 448 243 448 224 449 243 449 225 449 225 450 243 450 244 450 225 451 244 451 226 451 226 452 244 452 245 452 226 453 245 453 227 453 227 454 245 454 246 454 227 455 246 455 228 455 228 456 246 456 247 456 228 457 247 457 229 457 229 458 247 458 248 458 229 459 248 459 230 459 230 460 248 460 249 460 230 461 249 461 231 461 231 462 249 462 250 462 231 463 250 463 232 463 232 464 250 464 251 464 232 465 251 465 233 465 233 466 251 466 234 466 233 467 234 467 216 467 234 468 252 468 253 468 234 469 253 469 235 469 235 470 253 470 254 470 235 471 254 471 236 471 236 472 254 472 255 472 236 473 255 473 237 473 237 474 255 474 256 474 237 475 256 475 238 475 238 476 256 476 257 476 238 477 257 477 239 477 239 478 257 478 258 478 239 479 258 479 240 479 240 480 258 480 259 480 240 481 259 481 241 481 241 482 259 482 260 482 241 483 260 483 242 483 242 484 260 484 261 484 242 485 261 485 243 485 243 486 261 486 262 486 243 487 262 487 244 487 244 488 262 488 263 488 244 489 263 489 245 489 245 490 263 490 264 490 245 491 264 491 246 491 246 492 264 492 265 492 246 493 265 493 247 493 247 494 265 494 266 494 247 495 266 495 248 495 248 496 266 496 267 496 248 497 267 497 249 497 249 498 267 498 268 498 249 499 268 499 250 499 250 500 268 500 269 500 250 501 269 501 251 501 251 502 269 502 252 502 251 503 252 503 234 503 252 504 270 504 271 504 252 505 271 505 253 505 253 506 271 506 272 506 253 507 272 507 254 507 254 508 272 508 273 508 254 509 273 509 255 509 255 510 273 510 274 510 255 511 274 511 256 511 256 512 274 512 275 512 256 513 275 513 257 513 257 514 275 514 276 514 257 515 276 515 258 515 258 516 276 516 277 516 258 517 277 517 259 517 259 518 277 518 278 518 259 519 278 519 260 519 260 520 278 520 279 520 260 521 279 521 261 521 261 522 279 522 280 522 261 523 280 523 262 523 262 524 280 524 281 524 262 525 281 525 263 525 263 526 281 526 282 526 263 527 282 527 264 527 264 528 282 528 283 528 264 529 283 529 265 529 265 530 283 530 284 530 265 531 284 531 266 531 266 532 284 532 285 532 266 533 285 533 267 533 267 534 285 534 286 534 267 535 286 535 268 535 268 536 286 536 287 536 268 537 287 537 269 537 269 538 287 538 270 538 269 539 270 539 252 539 270 540 288 540 289 540 270 541 289 541 271 541 271 542 289 542 290 542 271 543 290 543 272 543 272 544 290 544 291 544 272 545 291 545 273 545 273 546 291 546 292 546 273 547 292 547 274 547 274 548 292 548 293 548 274 549 293 549 275 549 275 550 293 550 294 550 275 551 294 551 276 551 276 552 294 552 295 552 276 553 295 553 277 553 277 554 295 554 296 554 277 555 296 555 278 555 278 556 296 556 297 556 278 557 297 557 279 557 279 558 297 558 298 558 279 559 298 559 280 559 280 560 298 560 299 560 280 561 299 561 281 561 281 562 299 562 300 562 281 563 300 563 282 563 282 564 300 564 301 564 282 565 301 565 283 565 283 566 301 566 302 566 283 567 302 567 284 567 284 568 302 568 303 568 284 569 303 569 285 569 285 570 303 570 304 570 285 571 304 571 286 571 286 572 304 572 305 572 286 573 305 573 287 573 287 574 305 574 288 574 287 575 288 575 270 575 288 576 306 576 307 576 288 577 307 577 289 577 289 578 307 578 308 578 289 579 308 579 290 579 290 580 308 580 309 580 290 581 309 581 291 581 291 582 309 582 310 582 291 583 310 583 292 583 292 584 310 584 311 584 292 585 311 585 293 585 293 586 311 586 312 586 293 587 312 587 294 587 294 588 312 588 313 588 294 589 313 589 295 589 295 590 313 590 314 590 295 591 314 591 296 591 296 592 314 592 315 592 296 593 315 593 297 593 297 594 315 594 316 594 297 595 316 595 298 595 298 596 316 596 317 596 298 597 317 597 299 597 299 598 317 598 318 598 299 599 318 599 300 599 300 600 318 600 319 600 300 601 319 601 301 601 301 602 319 602 320 602 301 603 320 603 302 603 302 604 320 604 321 604 302 605 321 605 303 605 303 606 321 606 322 606 303 607 322 607 304 607 304 608 322 608 323 608 304 609 323 609 305 609 305 610 323 610 306 610 305 611 306 611 288 611 306 612 324 612 325 612 306 613 325 613 307 613 307 614 325 614 326 614 307 615 326 615 308 615 308 616 326 616 327 616 308 617 327 617 309 617 309 618 327 618 328 618 309 619 328 619 310 619 310 620 328 620 329 620 310 621 329 621 311 621 311 622 329 622 330 622 311 623 330 623 312 623 312 624 330 624 331 624 312 625 331 625 313 625 313 626 331 626 332 626 313 627 332 627 314 627 314 628 332 628 333 628 314 629 333 629 315 629 315 630 333 630 334 630 315 631 334 631 316 631 316 632 334 632 335 632 316 633 335 633 317 633 317 634 335 634 336 634 317 635 336 635 318 635 318 636 336 636 337 636 318 637 337 637 319 637 319 638 337 638 338 638 319 639 338 639 320 639 320 640 338 640 339 640 320 641 339 641 321 641 321 642 339 642 340 642 321 643 340 643 322 643 322 644 340 644 341 644 322 645 341 645 323 645 323 646 341 646 324 646 323 647 324 647 306 647 324 648 342 648 343 648 324 649 343 649 325 649 325 650 343 650 344 650 325 651 344 651 326 651 326 652 344 652 345 652 326 653 345 653 327 653 327 654 345 654 346 654 327 655 346 655 328 655 328 656 346 656 347 656 328 657 347 657 329 657 329 658 347 658 348 658 329 659 348 659 330 659 330 660 348 660 349 660 330 661 349 661 331 661 331 662 349 662 350 662 331 663 350 663 332 663 332 664 350 664 351 664 332 665 351 665 333 665 333 666 351 666 352 666 333 667 352 667 334 667 334 668 352 668 353 668 334 669 353 669 335 669 335 670 353 670 354 670 335 671 354 671 336 671 336 672 354 672 355 672 336 673 355 673 337 673 337 674 355 674 356 674 337 675 356 675 338 675 338 676 356 676 357 676 338 677 357 677 339 677 339 678 357 678 358 678 339 679 358 679 340 679 340 680 358 680 359 680 340 681 359 681 341 681 341 682 359 682 342 682 341 683 342 683 324 683 342 684 360 684 361 684 342 685 361 685 343 685 343 686 361 686 362 686 343 687 362 687 344 687 344 688 362 688 363 688 344 689 363 689 345 689 345 690 363 690 364 690 345 691 364 691 346 691 346 692 364 692 365 692 346 693 365 693 347 693 347 694 365 694 366 694 347 695 366 695 348 695 348 696 366 696 367 696 348 697 367 697 349 697 349 698 367 698 368 698 349 699 368 699 350 699 350 700 368 700 369 700 350 701 369 701 351 701 351 702 369 702 370 702 351 703 370 703 352 703 352 704 370 704 371 704 352 705 371 705 353 705 353 706 371 706 372 706 353 707 372 707 354 707 354 708 372 708 373 708 354 709 373 709 355 709 355 710 373 710 374 710 355 711 374 711 356 711 356 712 374 712 375 712 356 713 375 713 357 713 357 714 375 714 376 714 357 715 376 715 358 715 358 716 376 716 377 716 358 717 377 717 359 717 359 718 377 718 360 718 359 719 360 719 342 719 360 720 378 720 379 720 360 721 379 721 361 721 361 722 379 722 380 722 361 723 380 723 362 723 362 724 380 724 381 724 362 725 381 725 363 725 363 726 381 726 382 726 363 727 382 727 364 727 364 728 382 728 383 728 364 729 383 729 365 729 365 730 383 730 384 730 365 731 384 731 366 731 366 732 384 732 385 732 366 733 385 733 367 733 367 734 385 734 386 734 367 735 386 735 368 735 368 736 386 736 387 736 368 737 387 737 369 737 369 738 387 738 388 738 369 739 388 739 370 739 370 740 388 740 389 740 370 741 389 741 371 741 371 742 389 742 390 742 371 743 390 743 372 743 372 744 390 744 391 744 372 745 391 745 373 745 373 746 391 746 392 746 373 747 392 747 374 747 374 748 392 748 393 748 374 749 393 749 375 749 375 750 393 750 394 750 375 751 394 751 376 751 376 752 394 752 395 752 376 753 395 753 377 753 377 754 395 754 378 754 377 755 378 755 360 755 378 756 396 756 397 756 378 757 397 757 379 757 379 758 397 758 398 758 379 759 398 759 380 759 380 760 398 760 399 760 380 761 399 761 381 761 381 762 399 762 400 762 381 763 400 763 382 763 382 764 400 764 401 764 382 765 401 765 383 765 383 766 401 766 402 766 383 767 402 767 384 767 384 768 402 768 403 768 384 769 403 769 385 769 385 770 403 770 404 770 385 771 404 771 386 771 386 772 404 772 405 772 386 773 405 773 387 773 387 774 405 774 406 774 387 775 406 775 388 775 388 776 406 776 407 776 388 777 407 777 389 777 389 778 407 778 408 778 389 779 408 779 390 779 390 780 408 780 409 780 390 781 409 781 391 781 391 782 409 782 410 782 391 783 410 783 392 783 392 784 410 784 411 784 392 785 411 785 393 785 393 786 411 786 412 786 393 787 412 787 394 787 394 788 412 788 413 788 394 789 413 789 395 789 395 790 413 790 396 790 395 791 396 791 378 791 396 792 414 792 415 792 396 793 415 793 397 793 397 794 415 794 416 794 397 795 416 795 398 795 398 796 416 796 417 796 398 797 417 797 399 797 399 798 417 798 418 798 399 799 418 799 400 799 400 800 418 800 419 800 400 801 419 801 401 801 401 802 419 802 420 802 401 803 420 803 402 803 402 804 420 804 421 804 402 805 421 805 403 805 403 806 421 806 422 806 403 807 422 807 404 807 404 808 422 808 423 808 404 809 423 809 405 809 405 810 423 810 424 810 405 811 424 811 406 811 406 812 424 812 425 812 406 813 425 813 407 813 407 814 425 814 426 814 407 815 426 815 408 815 408 816 426 816 427 816 408 817 427 817 409 817 409 818 427 818 428 818 409 819 428 819 410 819 410 820 428 820 429 820 410 821 429 821 411 821 411 822 429 822 430 822 411 823 430 823 412 823 412 824 430 824 431 824 412 825 431 825 413 825 413 826 431 826 414 826 413 827 414 827 396 827 414 828 432 828 433 828 414 829 433 829 415 829 415 830 433 830 434 830 415 831 434 831 416 831 416 832 434 832 435 832 416 833 435 833 417 833 417 834 435 834 436 834 417 835 436 835 418 835 418 836 436 836 437 836 418 837 437 837 419 837 419 838 437 838 438 838 419 839 438 839 420 839 420 840 438 840 439 840 420 841 439 841 421 841 421 842 439 842 440 842 421 843 440 843 422 843 422 844 440 844 441 844 422 845 441 845 423 845 423 846 441 846 442 846 423 847 442 847 424 847 424 848 442 848 443 848 424 849 443 849 425 849 425 850 443 850 444 850 425 851 444 851 426 851 426 852 444 852 445 852 426 853 445 853 427 853 427 854 445 854 446 854 427 855 446 855 428 855 428 856 446 856 447 856 428 857 447 857 429 857 429 858 447 858 448 858 429 859 448 859 430 859 430 860 448 860 449 860 430 861 449 861 431 861 431 862 449 862 432 862 431 863 432 863 414 863 432 864 450 864 451 864 432 865 451 865 433 865 433 866 451 866 452 866 433 867 452 867 434 867 434 868 452 868 453 868 434 869 453 869 435 869 435 870 453 870 454 870 435 871 454 871 436 871 436 872 454 872 455 872 436 873 455 873 437 873 437 874 455 874 456 874 437 875 456 875 438 875 438 876 456 876 457 876 438 877 457 877 439 877 439 878 457 878 458 878 439 879 458 879 440 879 440 880 458 880 459 880 440 881 459 881 441 881 441 882 459 882 460 882 441 883 460 883 442 883 442 884 460 884 461 884 442 885 461 885 443 885 443 886 461 886 462 886 443 887 462 887 444 887 444 888 462 888 463 888 444 889 463 889 445 889 445 890 463 890 464 890 445 891 464 891 446 891 446 892 464 892 465 892 446 893 465 893 447 893 447 894 465 894 466 894 447 895 466 895 448 895 448 896 466 896 467 896 448 897 467 897 449 897 449 898 467 898 450 898 449 899 450 899 432 899 450 900 468 900 469 900 450 901 469 901 451 901 451 902 469 902 470 902 451 903 470 903 452 903 452 904 470 904 471 904 452 905 471 905 453 905 453 906 471 906 472 906 453 907 472 907 454 907 454 908 472 908 473 908 454 909 473 909 455 909 455 910 473 910 474 910 455 911 474 911 456 911 456 912 474 912 475 912 456 913 475 913 457 913 457 914 475 914 476 914 457 915 476 915 458 915 458 916 476 916 477 916 458 917 477 917 459 917 459 918 477 918 478 918 459 919 478 919 460 919 460 920 478 920 479 920 460 921 479 921 461 921 461 922 479 922 480 922 461 923 480 923 462 923 462 924 480 924 481 924 462 925 481 925 463 925 463 926 481 926 482 926 463 927 482 927 464 927 464 928 482 928 483 928 464 929 483 929 465 929 465 930 483 930 484 930 465 931 484 931 466 931 466 932 484 932 485 932 466 933 485 933 467 933 467 934 485 934 468 934 467 935 468 935 450 935 468 936 486 936 487 936 468 937 487 937 469 937 469 938 487 938 488 938 469 939 488 939 470 939 470 940 488 940 489 940 470 941 489 941 471 941 471 942 489 942 490 942 471 943 490 943 472 943 472 944 490 944 491 944 472 945 491 945 473 945 473 946 491 946 492 946 473 947 492 947 474 947 474 948 492 948 493 948 474 949 493 949 475 949 475 950 493 950 494 950 475 951 494 951 476 951 476 952 494 952 495 952 476 953 495 953 477 953 477 954 495 954 496 954 477 955 496 955 478 955 478 956 496 956 497 956 478 957 497 957 479 957 479 958 497 958 498 958 479 959 498 959 480 959 480 960 498 960 499 960 480 961 499 961 481 961 481 962 499 962 500 962 481 963 500 963 482 963 482 964 500 964 501 964 482 965 501 965 483 965 483 966 501 966 502 966 483 967 502 967 484 967 484 968 502 968 503 968 484 969 503 969 485 969 485 970 503 970 486 970 485 971 486 971 468 971 486 972 504 972 505 972 486 973 505 973 487 973 487 974 505 974 506 974 487 975 506 975 488 975 488 976 506 976 507 976 488 977 507 977 489 977 489 978 507 978 508 978 489 979 508 979 490 979 490 980 508 980 509 980 490 981 509 981 491 981 491 982 509 982 510 982 491 983 510 983 492 983 492 984 510 984 511 984 492 985 511 985 493 985 493 986 511 986 512 986 493 987 512 987 494 987 494 988 512 988 513 988 494 989 513 989 495 989 495 990 513 990 514 990 495 991 514 991 496 991 496 992 514 992 515 992 496 993 515 993 497 993 497 994 515 994 516 994 497 995 516 995 498 995 498 996 516 996 517 996 498 997 517 997 499 997 499 998 517 998 518 998 499 999 518 999 500 999 500 1000 518 1000 519 1000 500 1001 519 1001 501 1001 501 1002 519 1002 520 1002 501 1003 520 1003 502 1003 502 1004 520 1004 521 1004 502 1005 521 1005 503 1005 503 1006 521 1006 504 1006 503 1007 504 1007 486 1007 522 1008 524 1008 525 1008 522 1009 525 1009 523 1009 524 1010 526 1010 527 1010 524 1011 527 1011 525 1011 526 1012 528 1012 529 1012 526 1013 529 1013 527 1013 528 1014 530 1014 531 1014 528 1015 531 1015 529 1015 530 1016 532 1016 533 1016 530 1017 533 1017 531 1017 532 1018 534 1018 535 1018 532 1019 535 1019 533 1019 534 1020 536 1020 537 1020 534 1021 537 1021 535 1021 536 1022 538 1022 539 1022 536 1023 539 1023 537 1023 538 1024 540 1024 541 1024 538 1025 541 1025 539 1025 540 1026 542 1026 543 1026 540 1027 543 1027 541 1027 542 1028 544 1028 545 1028 542 1029 545 1029 543 1029 544 1030 546 1030 547 1030 544 1031 547 1031 545 1031 546 1032 548 1032 549 1032 546 1033 549 1033 547 1033 548 1034 550 1034 551 1034 548 1035 551 1035 549 1035 550 1036 552 1036 553 1036 550 1037 553 1037 551 1037 552 1038 554 1038 555 1038 552 1039 555 1039 553 1039 554 1040 556 1040 557 1040 554 1041 557 1041 555 1041 556 1042 558 1042 559 1042 556 1043 559 1043 557 1043 558 1044 560 1044 561 1044 558 1045 561 1045 559 1045 560 1046 562 1046 563 1046 560 1047 563 1047 561 1047 562 1048 564 1048 565 1048 562 1049 565 1049 563 1049 564 1050 566 1050 567 1050 564 1051 567 1051 565 1051 566 1052 568 1052 569 1052 566 1053 569 1053 567 1053 568 1054 570 1054 571 1054 568 1055 571 1055 569 1055 570 1056 572 1056 573 1056 570 1057 573 1057 571 1057 572 1058 574 1058 575 1058 572 1059 575 1059 573 1059 574 1060 576 1060 577 1060 574 1061 577 1061 575 1061 576 1062 578 1062 579 1062 576 1063 579 1063 577 1063</p>
        </triangles>
      </mesh>
    </geometry>
  </library_geometries>
  <library_visual_scenes>
    <visual_scene id="Scene" name="Scene">
      <node id="hull-node" name="hull" type="NODE">
        <instance_geometry url="#hull-geo">
          <bind_material><technique_common>
            <instance_material symbol="hull-sym" target="#hull-mat"/>
          </technique_common></bind_material>
        </instance_geometry>
      </node>
    </visual_scene>
  </library_visual_scenes>
  <scene><instance_visual_scene url="#Scene"/></scene>
</COLLADA>
